# Blender v2.79 (sub 0) OBJ File: ''
# www.blender.org
o bettingFieldOBJ_polySurface22
v 0.629855 0.215003 -0.848083
v 0.606268 0.215003 -0.582037
v 0.862789 0.215003 -0.581275
v 0.897156 0.215003 -0.847285
v 0.928376 0.161252 -0.581079
v 0.965499 0.161252 -0.847081
v 0.955608 0.119446 -0.905232
v 0.907289 0.161252 -0.925719
v 0.636809 0.161252 -0.926528
v 0.907289 -0.161251 -0.925719
v 0.955608 -0.119445 -0.905232
v 0.965499 -0.161251 -0.847081
v 0.897156 -0.215002 -0.847285
v 0.928376 -0.161251 -0.581079
v 0.862789 -0.215002 -0.581275
v 0.606268 -0.215002 -0.582037
v 0.629855 -0.215002 -0.848083
v 0.636809 -0.161251 -0.926528
v -0.957765 -0.161251 -0.852824
v -0.917325 -0.161251 -0.586562
v -0.940924 0.000001 -0.586632
v -0.982356 0.000001 -0.852898
v -0.917325 0.161252 -0.586562
v -0.957765 0.161252 -0.852824
v -0.947168 0.119446 -0.910920
v -0.969591 0.000001 -0.931332
v -0.947168 -0.119445 -0.910920
v 0.668577 -0.161251 0.921993
v 0.708230 -0.119445 0.903868
v 0.718670 0.000001 0.922135
v 0.665549 0.000001 0.945434
v 0.708230 0.119446 0.903868
v 0.668577 0.161252 0.921993
v 0.472975 0.161252 0.921436
v 0.470897 0.000001 0.944880
v 0.472975 -0.161251 0.921436
v 0.976355 0.000001 -0.925513
v 0.988280 0.000001 -0.847013
v 0.950239 0.000001 -0.581015
v 0.639128 0.000001 -0.952676
v 0.910666 0.000001 -0.951864
v -0.846527 0.215003 -0.586351
v -0.883992 0.215003 -0.852603
v -0.584796 0.215003 -0.585575
v -0.611262 0.215003 -0.851789
v -0.619066 0.161252 -0.930283
v -0.895039 0.161252 -0.931108
v -0.634807 -0.161251 0.918281
v -0.435232 -0.161251 0.918849
v -0.432900 0.000001 0.942308
v -0.631506 0.000001 0.941743
v -0.435232 0.161252 0.918849
v -0.634807 0.161252 0.918281
v -0.677635 0.119446 0.899917
v -0.688879 0.000001 0.918126
v -0.677635 -0.119445 0.899917
v -0.895039 -0.161251 -0.931108
v -0.619066 -0.161251 -0.930283
v -0.611262 -0.215002 -0.851789
v -0.883992 -0.215002 -0.852603
v -0.584796 -0.215002 -0.585575
v -0.846527 -0.215002 -0.586351
v -0.621667 0.000001 -0.956448
v -0.898721 0.000001 -0.957277
v 0.011604 0.215003 -0.583803
v 0.010201 0.215003 -0.849934
v 0.009788 0.161252 -0.928403
v 0.019534 -0.161251 0.920144
v 0.019657 0.000001 0.943596
v 0.019534 0.161252 0.920144
v 0.009788 -0.161251 -0.928403
v 0.010201 -0.215002 -0.849934
v 0.011604 -0.215002 -0.583803
v 0.009650 0.000001 -0.954559
v 0.479211 0.215003 0.851103
v 0.677663 0.215003 0.851670
v 0.728403 0.161252 0.851815
v 0.764394 0.161252 0.593924
v 0.710981 0.215003 0.593770
v 0.502078 0.215003 0.593168
v 0.728403 -0.161251 0.851814
v 0.764394 -0.161251 0.593924
v 0.782198 0.000001 0.593975
v 0.745316 0.000001 0.851863
v 0.710981 -0.215002 0.593770
v 0.677663 -0.215002 0.851670
v 0.479211 -0.215002 0.851103
v 0.502078 -0.215002 0.593168
v 0.017802 -0.215002 0.591773
v 0.019163 -0.215002 0.849789
v -0.442229 -0.215002 0.848471
v -0.467888 -0.215002 0.590374
v -0.681034 -0.215002 0.589759
v -0.644712 -0.215002 0.847893
v -0.699483 -0.161251 0.847737
v -0.738690 -0.161251 0.589593
v -0.757908 0.000001 0.589538
v -0.717740 0.000001 0.847685
v -0.699483 0.161252 0.847737
v -0.738690 0.161252 0.589593
v -0.681034 0.215003 0.589759
v -0.644712 0.215003 0.847893
v -0.442229 0.215003 0.848471
v -0.467888 0.215003 0.590374
v 0.017802 0.215003 0.591773
v 0.019163 0.215003 0.849789
v 0.554053 0.215003 0.006917
v 0.786711 0.215003 0.007599
v 0.846196 0.161252 0.007773
v 0.846196 -0.161251 0.007773
v 0.866025 0.000001 0.007832
v 0.786711 -0.215002 0.007599
v 0.554053 -0.215002 0.006917
v 0.014710 -0.215002 0.005337
v -0.526208 -0.215002 0.003752
v -0.763590 -0.215002 0.003057
v -0.827802 -0.161251 0.002869
v -0.849205 0.000001 0.002806
v -0.827802 0.161252 0.002869
v -0.763590 0.215003 0.003057
v -0.526208 0.215003 0.003752
v 0.014710 0.215003 0.005337
vt 0.818117 0.055120
vt 0.953759 0.195325
vt 0.953759 0.055120
vt 0.988440 0.195325
vt 0.988440 0.055120
vt 0.953759 0.013780
vt 0.818117 0.013780
vt 0.953759 0.000000
vt 1.000000 0.055120
vt 0.953759 0.055120
vt 1.000000 0.195325
vt 0.953759 0.195325
vt 0.818117 0.055120
vt 0.818117 0.000000
vt 0.000000 0.055120
vt 0.000000 0.195325
vt 0.000000 0.055120
vt 0.012479 0.055120
vt 0.022184 0.024498
vt 0.012479 0.013780
vt 0.012479 0.013780
vt 0.988440 0.987645
vt 0.953759 1.000000
vt 0.953759 1.000000
vt 0.979448 0.978036
vt 0.988440 0.987645
vt 0.818117 0.987645
vt 0.953759 0.987645
vt 0.818117 1.000000
vt 0.818117 1.000000
vt 0.988440 0.013780
vt 1.000000 0.055120
vt 0.979448 0.024498
vt 0.988440 0.013780
vt 1.000000 0.195325
vt 0.818117 0.000000
vt 0.953759 0.000000
vt 0.012479 0.195325
vt 0.049915 0.055120
vt 0.049915 0.195325
vt 0.188312 0.055120
vt 0.188312 0.013780
vt 0.049915 0.013780
vt 0.188312 1.000000
vt 0.049915 1.000000
vt 0.049915 1.000000
vt 0.188312 0.987645
vt 0.188312 1.000000
vt 0.022184 0.978036
vt 0.049915 0.987645
vt 0.012479 0.987645
vt 0.012479 0.987645
vt 0.188312 0.000000
vt 0.049915 0.055120
vt 0.049915 0.000000
vt 0.188312 0.055120
vt 0.049915 0.195325
vt 0.000000 0.195325
vt 0.188312 0.000000
vt 0.049915 0.000000
vt 0.188312 0.195325
vt 0.503673 0.055120
vt 0.818117 0.195325
vt 0.503673 0.195325
vt 0.503673 0.013780
vt 0.503673 1.000000
vt 0.503673 1.000000
vt 0.503673 0.987645
vt 0.503673 0.000000
vt 0.503673 0.055120
vt 0.818117 0.195325
vt 0.188312 0.195325
vt 0.503673 0.195325
vt 0.503673 0.000000
vt 0.818117 0.950580
vt 0.953759 0.950580
vt 0.988440 0.950580
vt 0.953759 0.814650
vt 0.818117 0.814650
vt 1.000000 0.814650
vt 1.000000 0.950580
vt 1.000000 0.950580
vt 0.988440 0.814650
vt 1.000000 0.814650
vt 0.953759 0.814650
vt 0.953759 0.950580
vt 0.818117 0.950580
vt 0.818117 0.814650
vt 0.503673 0.814650
vt 0.503673 0.950580
vt 0.188312 0.950580
vt 0.188312 0.814650
vt 0.049915 0.950580
vt 0.049915 0.814650
vt 0.000000 0.950580
vt 0.000000 0.814650
vt 0.000000 0.950580
vt 0.000000 0.814650
vt 0.012479 0.814650
vt 0.012479 0.950580
vt 0.049915 0.814650
vt 0.049915 0.950580
vt 0.188312 0.950580
vt 0.188312 0.814650
vt 0.503673 0.814650
vt 0.503673 0.950580
vt 0.818117 0.505700
vt 0.953759 0.505700
vt 0.988440 0.505700
vt 1.000000 0.505700
vt 1.000000 0.505700
vt 0.953759 0.505700
vt 0.818117 0.505700
vt 0.503673 0.505700
vt 0.188312 0.505700
vt 0.049915 0.505700
vt 0.000000 0.505700
vt 0.000000 0.505700
vt 0.012479 0.505700
vt 0.049915 0.505700
vt 0.188312 0.505700
vt 0.503673 0.505700
vn 0.1018 0.9735 -0.2048
vn 0.1734 0.9846 0.0233
vn 0.1438 0.9817 -0.1250
vn 0.9240 0.3718 0.0900
vn 0.7973 0.6007 0.0579
vn 0.1020 0.4318 -0.8962
vn -0.1102 0.5082 -0.8542
vn 0.2865 -0.3108 -0.9062
vn 0.9220 -0.3850 0.0401
vn 0.1438 -0.9817 -0.1251
vn 0.8518 -0.4611 0.2485
vn 0.2067 -0.9664 0.1525
vn 0.0005 -0.9867 -0.1623
vn 0.0397 -0.4392 -0.8975
vn -0.9412 -0.3332 -0.0562
vn -0.9883 0.0000 0.1526
vn -0.9949 0.0003 0.1013
vn -0.9133 0.4052 0.0425
vn -0.7663 0.2611 -0.5870
vn -0.7165 -0.2883 -0.6352
vn -0.7687 -0.0117 -0.6395
vn 0.7449 -0.1527 0.6495
vn 0.0605 0.0004 0.9982
vn 0.1092 -0.4086 0.9062
vn 0.7375 0.2371 0.6324
vn 0.7149 -0.0404 0.6981
vn 0.0868 0.4431 0.8923
vn 0.2137 0.6579 0.7222
vn -0.0726 -0.4264 0.9016
vn -0.0028 0.0000 1.0000
vn 0.7388 -0.2649 -0.6196
vn 0.9957 0.0002 0.0926
vn 0.7472 0.3161 -0.5846
vn 0.7796 0.0252 -0.6258
vn 0.9901 0.0000 0.1405
vn 0.0030 0.0000 -1.0000
vn 0.0553 0.0004 -0.9985
vn -0.9135 0.3948 0.0986
vn -0.1398 0.9822 -0.1254
vn -0.2006 0.9686 0.1467
vn 0.0005 0.9866 -0.1631
vn -0.0340 0.4385 -0.8981
vn -0.0686 0.6381 -0.7669
vn -0.0931 -0.4454 0.8905
vn -0.0657 0.0003 0.9978
vn -0.1118 -0.4094 0.9055
vn 0.0662 0.4264 0.9021
vn -0.7183 0.1637 0.6762
vn -0.2731 0.2961 0.9153
vn -0.7207 -0.2388 0.6508
vn -0.6998 0.0318 0.7137
vn 0.1164 -0.5099 -0.8523
vn -0.1405 -0.9822 -0.1244
vn -0.0962 -0.4302 -0.8976
vn 0.1006 -0.9737 -0.2046
vn -0.1689 -0.9853 0.0247
vn -0.8464 -0.5325 0.0018
vn -0.0495 0.0000 -0.9988
vn -0.0000 1.0000 0.0000
vn 0.0005 0.9874 -0.1580
vn 0.0027 0.4389 -0.8985
vn -0.0395 -0.4080 0.9121
vn -0.0025 0.4028 0.9153
vn 0.0182 -0.4398 -0.8979
vn 0.0005 -0.9874 -0.1580
vn 0.0000 -1.0000 -0.0000
vn -0.1620 0.9518 0.2604
vn 0.1683 0.9751 0.1445
vn 0.9289 0.3151 0.1946
vn 0.1933 0.9808 0.0257
vn 0.8987 -0.3756 0.2264
vn 0.9847 0.0001 0.1744
vn 0.9290 -0.3147 0.1949
vn 0.8825 0.4700 0.0151
vn 0.9901 0.0000 0.1402
vn 0.3724 -0.9160 -0.1492
vn 0.1668 -0.9751 0.1460
vn -0.0004 -0.9882 0.1534
vn -0.0019 -0.9870 0.1607
vn -0.0814 -0.9818 0.1714
vn -0.1609 -0.9762 0.1452
vn -0.1862 -0.9821 0.0270
vn -0.9186 -0.3361 0.2081
vn -0.8729 -0.4873 0.0247
vn -0.9820 0.0000 0.1889
vn -0.9883 0.0000 0.1522
vn -0.8870 0.3976 0.2349
vn -0.7982 0.5610 0.2192
vn -0.3590 0.9234 -0.1360
vn -0.1609 0.9762 0.1452
vn -0.0004 0.9883 0.1525
vn -0.0019 0.9870 0.1607
vn 0.1832 0.9828 0.0246
vn 0.8574 0.4538 0.2427
vn 0.9291 -0.3465 0.1295
vn 0.1832 -0.9828 0.0246
vn -0.1773 -0.9838 0.0259
vn -0.8435 -0.4755 0.2497
vn -0.9187 0.3695 0.1394
vn -0.1773 0.9838 0.0259
s 1
f 1/1/1 3/2/2 4/3/3
f 5/4/4 4/3/3 3/2/2
f 6/5/5 8/6/6 4/3/3
f 9/7/7 4/3/3 8/6/6
f 10/8/8 12/9/9 13/10/10
f 14/11/11 13/10/10 12/9/9
f 15/12/12 17/13/13 13/10/10
f 18/14/14 13/10/10 17/13/13
f 19/15/15 21/16/16 22/17/17
f 21/16/16 24/18/18 22/17/17
f 25/19/19 22/17/17 24/18/18
f 27/20/20 22/17/17 26/21/21
f 29/22/22 31/23/23 28/24/24
f 32/25/25 31/23/23 30/26/26
f 34/27/27 31/23/23 33/28/28
f 36/29/29 31/23/23 35/30/30
f 11/31/31 38/32/32 12/9/9
f 7/33/33 38/32/32 37/34/34
f 6/5/5 39/35/35 38/32/32
f 39/35/35 12/9/9 38/32/32
f 10/8/8 40/36/36 41/37/37
f 40/36/36 8/6/6 41/37/37
f 7/33/33 41/37/37 8/6/6
f 11/31/31 41/37/37 37/34/34
f 23/38/38 43/39/39 24/18/18
f 42/40/40 45/41/41 43/39/39
f 46/42/42 43/39/39 45/41/41
f 47/43/43 24/18/18 43/39/39
f 49/44/44 51/45/45 48/46/46
f 52/47/47 51/45/45 50/48/30
f 54/49/48 51/45/45 53/50/49
f 56/51/50 51/45/45 55/52/51
f 58/53/52 60/54/53 57/55/54
f 59/56/55 62/57/56 60/54/53
f 20/58/57 60/54/53 62/57/56
f 19/15/15 57/55/54 60/54/53
f 63/59/36 57/55/54 64/60/58
f 27/20/20 64/60/58 57/55/54
f 25/19/19 64/60/58 26/21/21
f 47/43/43 63/59/36 64/60/58
f 44/61/59 66/62/60 45/41/41
f 2/63/59 66/62/60 65/64/59
f 1/1/1 67/65/61 66/62/60
f 67/65/61 45/41/41 66/62/60
f 68/66/62 35/30/30 69/67/30
f 35/30/30 70/68/63 69/67/30
f 70/68/63 50/48/30 69/67/30
f 50/48/30 68/66/62 69/67/30
f 71/69/64 17/13/13 72/70/65
f 16/71/66 72/70/65 17/13/13
f 61/72/66 72/70/65 73/73/66
f 59/56/55 71/69/64 72/70/65
f 18/14/14 74/74/36 40/36/36
f 58/53/52 74/74/36 71/69/64
f 46/42/42 74/74/36 63/59/36
f 9/7/7 74/74/36 67/65/61
f 75/75/67 33/28/28 76/76/68
f 33/28/28 77/77/69 76/76/68
f 77/77/69 79/78/70 76/76/68
f 80/79/59 76/76/68 79/78/70
f 82/80/71 84/81/72 81/82/73
f 78/83/74 84/81/72 83/84/75
f 32/25/25 84/81/72 77/77/69
f 29/22/22 84/81/72 30/26/26
f 85/85/76 81/82/73 86/86/77
f 81/82/73 28/24/24 86/86/77
f 28/24/24 87/87/78 86/86/77
f 88/88/66 86/86/77 87/87/78
f 89/89/66 87/87/78 90/90/79
f 36/29/29 90/90/79 87/87/78
f 49/44/44 90/90/79 68/66/62
f 91/91/80 89/89/66 90/90/79
f 92/92/66 94/93/81 93/94/82
f 91/91/80 48/46/46 94/93/81
f 48/46/46 95/95/83 94/93/81
f 95/95/83 93/94/82 94/93/81
f 96/96/84 98/97/85 97/98/86
f 56/51/50 98/97/85 95/95/83
f 54/49/48 98/97/85 55/52/51
f 100/99/87 98/97/85 99/100/88
f 101/101/89 99/100/88 102/102/90
f 99/100/88 53/50/49 102/102/90
f 53/50/49 103/103/91 102/102/90
f 104/104/59 102/102/90 103/103/91
f 105/105/59 103/103/91 106/106/92
f 52/47/47 106/106/92 103/103/91
f 34/27/27 106/106/92 70/68/63
f 75/75/67 105/105/59 106/106/92
f 107/107/59 79/78/70 108/108/93
f 78/83/74 108/108/93 79/78/70
f 109/109/94 3/2/2 108/108/93
f 2/63/59 108/108/93 3/2/2
f 14/11/11 111/110/75 110/111/95
f 5/4/4 111/110/75 39/35/35
f 109/109/94 83/84/75 111/110/75
f 83/84/75 110/111/95 111/110/75
f 15/12/12 110/111/95 112/112/96
f 82/80/71 112/112/96 110/111/95
f 85/85/76 113/113/66 112/112/96
f 16/71/66 112/112/96 113/113/66
f 73/73/66 113/113/66 114/114/66
f 88/88/66 114/114/66 113/113/66
f 92/92/66 114/114/66 89/89/66
f 115/115/66 73/73/66 114/114/66
f 61/72/66 116/116/97 62/57/56
f 115/115/66 93/94/82 116/116/97
f 96/96/84 116/116/97 93/94/82
f 117/117/98 62/57/56 116/116/97
f 20/58/57 118/118/86 21/16/16
f 117/117/98 97/98/86 118/118/86
f 97/98/86 119/119/99 118/118/86
f 23/38/38 118/118/86 119/119/99
f 42/40/40 119/119/99 120/120/100
f 100/99/87 120/120/100 119/119/99
f 101/101/89 121/121/59 120/120/100
f 44/61/59 120/120/100 121/121/59
f 65/64/59 121/121/59 122/122/59
f 104/104/59 122/122/59 121/121/59
f 80/79/59 122/122/59 105/105/59
f 107/107/59 65/64/59 122/122/59
f 1/1/1 2/63/59 3/2/2
f 5/4/4 6/5/5 4/3/3
f 6/5/5 7/33/33 8/6/6
f 9/7/7 1/1/1 4/3/3
f 10/8/8 11/31/31 12/9/9
f 14/11/11 15/12/12 13/10/10
f 15/12/12 16/71/66 17/13/13
f 18/14/14 10/8/8 13/10/10
f 19/15/15 20/58/57 21/16/16
f 21/16/16 23/38/38 24/18/18
f 25/19/19 26/21/21 22/17/17
f 27/20/20 19/15/15 22/17/17
f 29/22/22 30/26/26 31/23/23
f 32/25/25 33/28/28 31/23/23
f 34/27/27 35/30/30 31/23/23
f 36/29/29 28/24/24 31/23/23
f 11/31/31 37/34/34 38/32/32
f 7/33/33 6/5/5 38/32/32
f 6/5/5 5/4/4 39/35/35
f 39/35/35 14/11/11 12/9/9
f 10/8/8 18/14/14 40/36/36
f 40/36/36 9/7/7 8/6/6
f 7/33/33 37/34/34 41/37/37
f 11/31/31 10/8/8 41/37/37
f 23/38/38 42/40/40 43/39/39
f 42/40/40 44/61/59 45/41/41
f 46/42/42 47/43/43 43/39/39
f 47/43/43 25/19/19 24/18/18
f 49/44/44 50/48/30 51/45/45
f 52/47/47 53/50/49 51/45/45
f 54/49/48 55/52/51 51/45/45
f 56/51/50 48/46/46 51/45/45
f 58/53/52 59/56/55 60/54/53
f 59/56/55 61/72/66 62/57/56
f 20/58/57 19/15/15 60/54/53
f 19/15/15 27/20/20 57/55/54
f 63/59/36 58/53/52 57/55/54
f 27/20/20 26/21/21 64/60/58
f 25/19/19 47/43/43 64/60/58
f 47/43/43 46/42/42 63/59/36
f 44/61/59 65/64/59 66/62/60
f 2/63/59 1/1/1 66/62/60
f 1/1/1 9/7/7 67/65/61
f 67/65/61 46/42/42 45/41/41
f 68/66/62 36/29/29 35/30/30
f 35/30/30 34/27/27 70/68/63
f 70/68/63 52/47/47 50/48/30
f 50/48/30 49/44/44 68/66/62
f 71/69/64 18/14/14 17/13/13
f 16/71/66 73/73/66 72/70/65
f 61/72/66 59/56/55 72/70/65
f 59/56/55 58/53/52 71/69/64
f 18/14/14 71/69/64 74/74/36
f 58/53/52 63/59/36 74/74/36
f 46/42/42 67/65/61 74/74/36
f 9/7/7 40/36/36 74/74/36
f 75/75/67 34/27/27 33/28/28
f 33/28/28 32/25/25 77/77/69
f 77/77/69 78/83/74 79/78/70
f 80/79/59 75/75/67 76/76/68
f 82/80/71 83/84/75 84/81/72
f 78/83/74 77/77/69 84/81/72
f 32/25/25 30/26/26 84/81/72
f 29/22/22 81/82/73 84/81/72
f 85/85/76 82/80/71 81/82/73
f 81/82/73 29/22/22 28/24/24
f 28/24/24 36/29/29 87/87/78
f 88/88/66 85/85/76 86/86/77
f 89/89/66 88/88/66 87/87/78
f 36/29/29 68/66/62 90/90/79
f 49/44/44 91/91/80 90/90/79
f 91/91/80 92/92/66 89/89/66
f 92/92/66 91/91/80 94/93/81
f 91/91/80 49/44/44 48/46/46
f 48/46/46 56/51/50 95/95/83
f 95/95/83 96/96/84 93/94/82
f 96/96/84 95/95/83 98/97/85
f 56/51/50 55/52/51 98/97/85
f 54/49/48 99/100/88 98/97/85
f 100/99/87 97/98/86 98/97/85
f 101/101/89 100/99/87 99/100/88
f 99/100/88 54/49/48 53/50/49
f 53/50/49 52/47/47 103/103/91
f 104/104/59 101/101/89 102/102/90
f 105/105/59 104/104/59 103/103/91
f 52/47/47 70/68/63 106/106/92
f 34/27/27 75/75/67 106/106/92
f 75/75/67 80/79/59 105/105/59
f 107/107/59 80/79/59 79/78/70
f 78/83/74 109/109/94 108/108/93
f 109/109/94 5/4/4 3/2/2
f 2/63/59 107/107/59 108/108/93
f 14/11/11 39/35/35 111/110/75
f 5/4/4 109/109/94 111/110/75
f 109/109/94 78/83/74 83/84/75
f 83/84/75 82/80/71 110/111/95
f 15/12/12 14/11/11 110/111/95
f 82/80/71 85/85/76 112/112/96
f 85/85/76 88/88/66 113/113/66
f 16/71/66 15/12/12 112/112/96
f 73/73/66 16/71/66 113/113/66
f 88/88/66 89/89/66 114/114/66
f 92/92/66 115/115/66 114/114/66
f 115/115/66 61/72/66 73/73/66
f 61/72/66 115/115/66 116/116/97
f 115/115/66 92/92/66 93/94/82
f 96/96/84 117/117/98 116/116/97
f 117/117/98 20/58/57 62/57/56
f 20/58/57 117/117/98 118/118/86
f 117/117/98 96/96/84 97/98/86
f 97/98/86 100/99/87 119/119/99
f 23/38/38 21/16/16 118/118/86
f 42/40/40 23/38/38 119/119/99
f 100/99/87 101/101/89 120/120/100
f 101/101/89 104/104/59 121/121/59
f 44/61/59 42/40/40 120/120/100
f 65/64/59 44/61/59 121/121/59
f 104/104/59 105/105/59 122/122/59
f 80/79/59 107/107/59 122/122/59
f 107/107/59 2/63/59 65/64/59
