# Blender v2.79 (sub 0) OBJ File: ''
# www.blender.org
o polySurface1_bettingField_topGrp
v -5.473646 0.215001 5.510432
v -5.251774 0.215001 5.261312
v -5.504958 0.215001 5.231729
v -5.737434 0.215001 5.479446
v -5.579462 0.161250 5.223023
v -5.815061 0.161250 5.470328
v -5.844340 0.119444 5.524916
v -5.803657 0.161250 5.550011
v -5.536848 0.161250 5.581396
v -5.803658 -0.161253 5.550011
v -5.844340 -0.119447 5.524916
v -5.815061 -0.161253 5.470328
v -5.737434 -0.215004 5.479446
v -5.579462 -0.161253 5.223023
v -5.504958 -0.215004 5.231729
v -5.251774 -0.215004 5.261312
v -5.473646 -0.215004 5.510432
v -5.536848 -0.161253 5.581396
v -3.947691 -0.161253 5.689677
v -3.787169 -0.161253 5.432440
v -3.760166 -0.000001 5.435595
v -3.919557 -0.000001 5.692982
v -3.787169 0.161250 5.432440
v -3.947691 0.161250 5.689677
v -4.003779 0.119444 5.741341
v -3.993525 -0.000001 5.762939
v -4.003779 -0.119447 5.741341
v -4.182881 -0.161253 3.822981
v -4.240330 -0.119447 3.834364
v -4.239725 -0.000001 3.816612
v -4.163421 -0.000001 3.802244
v -4.240331 0.119444 3.834364
v -4.182881 0.161250 3.822981
v -3.990010 0.161250 3.844584
v -3.971437 -0.000001 3.823730
v -3.990010 -0.161253 3.844584
v -5.882073 -0.000001 5.540788
v -5.840936 -0.000001 5.467289
v -5.604298 -0.000001 5.220122
v -5.557915 -0.000001 5.605051
v -5.825732 -0.000001 5.573532
v -2.936007 -0.161253 3.962643
v -3.133833 -0.161253 3.940484
v -3.119201 -0.000001 3.919109
v -2.922285 -0.000001 3.941147
v -3.133833 0.161250 3.940484
v -2.936007 0.161250 3.962643
v -2.900671 0.119444 3.984521
v -2.874200 -0.000001 3.969568
v -2.900671 -0.119447 3.984521
v -4.078787 -0.161253 5.752912
v -4.352450 -0.161253 5.720719
v -4.302659 -0.215004 5.647982
v -4.032094 -0.215004 5.679763
v -4.127866 -0.215004 5.392632
v -3.868178 -0.215004 5.422975
v -4.369048 -0.000001 5.744966
v -4.094351 -0.000001 5.777294
v -4.078787 0.161250 5.752911
v -4.352450 0.161250 5.720720
v -3.868178 0.215001 5.422975
v -4.032094 0.215001 5.679763
v -4.127866 0.215001 5.392632
v -4.302659 0.215001 5.647982
v -3.562747 -0.161253 3.892442
v -3.546141 -0.000001 3.871327
v -3.562747 0.161250 3.892442
v -4.945792 -0.161253 5.650924
v -4.889282 -0.215004 5.579074
v -4.690904 -0.215004 5.326845
v -4.964628 -0.000001 5.674873
v -4.945792 0.161250 5.650924
v -4.690904 0.215001 5.326845
v -4.889282 0.215001 5.579074
v -3.177729 0.215001 4.004611
v -3.612566 0.215001 3.955784
v -4.045729 0.215001 3.907146
v -4.260117 0.215001 4.147864
v -3.804253 0.215001 4.199506
v -3.346626 0.215001 4.251347
v -4.465899 0.215001 4.124553
v -4.241263 0.215001 3.885190
v -4.298803 0.161250 3.878730
v -4.526455 0.161250 4.117693
v -4.298803 -0.161253 3.878729
v -4.526455 -0.161253 4.117693
v -4.546640 -0.000001 4.115407
v -4.317984 -0.000001 3.876576
v -4.465899 -0.215004 4.124553
v -4.241263 -0.215004 3.885190
v -4.045729 -0.215004 3.907146
v -4.260118 -0.215004 4.147864
v -3.804253 -0.215004 4.199506
v -3.612566 -0.215004 3.955784
v -3.177729 -0.215004 4.004611
v -3.346626 -0.215004 4.251347
v -3.135557 -0.215004 4.275257
v -2.977170 -0.215004 4.027130
v -2.914607 -0.161253 4.034155
v -3.069715 -0.161253 4.282717
v -3.047767 -0.000001 4.285203
v -2.893752 -0.000001 4.036497
v -2.914607 0.161250 4.034155
v -3.069715 0.161250 4.282716
v -3.135557 0.215001 4.275257
v -2.977170 0.215001 4.027130
v -3.736263 0.215001 4.820554
v -4.246463 0.215001 4.761758
v -4.754699 0.215001 4.703188
v -4.984122 0.215001 4.676749
v -5.051634 0.161250 4.668969
v -5.051634 -0.161253 4.668968
v -5.074139 -0.000001 4.666375
v -4.984121 -0.215004 4.676748
v -4.754698 -0.215004 4.703187
v -4.246463 -0.215004 4.761758
v -3.736263 -0.215004 4.820554
v -3.500947 -0.215004 4.847672
v -3.427540 -0.161253 4.856133
v -3.403071 -0.000001 4.858952
v -3.427540 0.161250 4.856132
v -3.500947 0.215001 4.847672
vt 0.808841 0.053117
vt 0.946132 0.192969
vt 0.946132 0.053117
vt 0.986533 0.192969
vt 0.986533 0.053117
vt 0.946132 0.013279
vt 0.808841 0.013279
vt 0.946132 0.000000
vt 1.000000 0.053117
vt 0.946132 0.053117
vt 1.000000 0.192969
vt 0.946132 0.192969
vt 0.808841 0.053117
vt 0.808841 0.000000
vt 0.000000 0.192969
vt 0.000000 0.053117
vt 0.000000 0.053117
vt 0.014643 0.192969
vt 0.000000 0.192969
vt 0.026031 0.023608
vt 0.014643 0.053117
vt 0.014643 0.013279
vt 0.014643 0.013279
vt 0.986533 0.988293
vt 0.946132 1.000000
vt 0.946132 1.000000
vt 0.976059 0.979187
vt 0.986533 0.988293
vt 0.808841 0.988293
vt 0.946132 0.988293
vt 0.808841 1.000000
vt 0.808841 1.000000
vt 0.986533 0.013279
vt 1.000000 0.053117
vt 0.976059 0.023608
vt 0.986533 0.013279
vt 1.000000 0.192969
vt 0.808841 0.000000
vt 0.946132 0.000000
vt 0.058571 1.000000
vt 0.199389 1.000000
vt 0.058571 1.000000
vt 0.058571 0.988293
vt 0.026031 0.979187
vt 0.014643 0.988293
vt 0.014643 0.988293
vt 0.058571 0.000000
vt 0.199389 0.053117
vt 0.058571 0.053117
vt 0.199389 0.192969
vt 0.058571 0.192969
vt 0.199389 0.000000
vt 0.058571 0.000000
vt 0.199389 0.000000
vt 0.199389 0.013279
vt 0.058571 0.013279
vt 0.058571 0.192969
vt 0.058571 0.053117
vt 0.199389 0.192969
vt 0.199389 0.053117
vt 0.504703 1.000000
vt 0.504703 1.000000
vt 0.504703 0.988293
vt 0.199389 0.988293
vt 0.199389 1.000000
vt 0.504703 0.000000
vt 0.504703 0.053117
vt 0.808841 0.192969
vt 0.504703 0.192969
vt 0.504703 0.000000
vt 0.504703 0.013279
vt 0.504703 0.192969
vt 0.504703 0.053117
vt 0.808841 0.192969
vt 0.199389 0.953172
vt 0.504703 0.953172
vt 0.808841 0.953172
vt 0.504703 0.818037
vt 0.199389 0.818037
vt 0.808841 0.818037
vt 0.946132 0.953172
vt 0.946132 0.818037
vt 0.986533 0.953172
vt 1.000000 0.818037
vt 1.000000 0.953172
vt 1.000000 0.953172
vt 0.986533 0.818037
vt 1.000000 0.818037
vt 0.946132 0.818037
vt 0.946132 0.953172
vt 0.808841 0.953172
vt 0.808841 0.818037
vt 0.504703 0.818037
vt 0.504703 0.953172
vt 0.199389 0.953172
vt 0.199389 0.818037
vt 0.058571 0.818037
vt 0.058571 0.953172
vt 0.000000 0.953172
vt 0.000000 0.818037
vt 0.000000 0.818037
vt 0.000000 0.953172
vt 0.014643 0.953172
vt 0.014643 0.818037
vt 0.058571 0.953172
vt 0.058571 0.818037
vt 0.199389 0.506289
vt 0.504703 0.506289
vt 0.808841 0.506289
vt 0.946132 0.506289
vt 0.986533 0.506289
vt 1.000000 0.506289
vt 1.000000 0.506289
vt 0.946132 0.506289
vt 0.808841 0.506289
vt 0.504703 0.506289
vt 0.199389 0.506289
vt 0.058571 0.506289
vt 0.000000 0.506289
vt 0.000000 0.506289
vt 0.014643 0.506289
vt 0.058571 0.506289
vn -0.1123 0.9702 0.2146
vn -0.1763 0.9701 -0.1671
vn -0.1948 0.9805 0.0252
vn -0.7099 0.3283 -0.6232
vn -0.5145 0.7072 -0.4849
vn -0.2220 0.4000 0.8892
vn 0.0440 0.5486 0.8349
vn -0.6102 -0.2464 0.7529
vn -0.7326 -0.3335 -0.5934
vn -0.1949 -0.9805 0.0251
vn -0.5193 -0.4974 -0.6949
vn -0.1419 -0.9560 -0.2568
vn -0.0219 -0.9822 0.1865
vn -0.1602 -0.4163 0.8950
vn 0.6895 -0.4813 0.5413
vn 0.8226 0.0001 0.5686
vn 0.7014 -0.4545 0.5491
vn 0.7856 0.4391 0.4360
vn 0.8494 0.0000 0.5278
vn 0.4418 0.2686 0.8560
vn 0.6342 0.3950 0.6647
vn 0.3799 -0.2917 0.8778
vn 0.4343 0.0000 0.9008
vn -0.4158 -0.1686 -0.8937
vn 0.0496 0.0001 -0.9988
vn -0.0055 -0.4176 -0.9086
vn -0.4456 0.2203 -0.8677
vn -0.3979 -0.0207 -0.9172
vn 0.0222 0.4511 -0.8922
vn -0.0534 0.5449 -0.8368
vn 0.1605 -0.4351 -0.8860
vn 0.1113 0.0000 -0.9938
vn -0.9158 -0.2907 0.2770
vn -0.7470 0.0002 -0.6648
vn -0.8778 0.3950 0.2711
vn -0.9565 0.1009 0.2737
vn -0.7230 0.0000 -0.6909
vn -0.1169 0.0000 0.9931
vn -0.1654 0.0010 0.9862
vn 0.4462 -0.2332 -0.8640
vn 0.1710 0.0007 -0.9853
vn 0.2308 0.3755 -0.8976
vn 0.9330 0.2119 -0.2910
vn 0.8910 -0.3336 -0.3079
vn 0.9227 0.0676 -0.3794
vn -0.0194 -0.4976 0.8672
vn -0.0153 -0.9914 0.1301
vn 0.0845 -0.9821 0.1681
vn 0.0000 -1.0000 -0.0000
vn 0.1066 -0.9860 0.1282
vn -0.1884 -0.5384 0.8214
vn -0.0645 0.0000 0.9979
vn -0.0181 0.5001 0.8658
vn 0.0389 0.5961 0.8019
vn 0.1274 0.9886 0.0804
vn 0.0844 0.9821 0.1682
vn -0.0000 1.0000 0.0000
vn 0.0440 0.9880 0.1480
vn 0.1420 -0.4003 -0.9053
vn 0.1023 0.3941 -0.9133
vn 0.0413 0.6083 -0.7926
vn -0.0356 -0.4635 -0.8854
vn -0.1228 -0.4370 0.8910
vn -0.0181 -0.9879 0.1539
vn -0.1051 0.4358 0.8939
vn -0.0181 0.9879 0.1539
vn 0.1846 0.9244 -0.3337
vn 0.0173 0.9878 -0.1545
vn -0.1199 0.9746 -0.1893
vn -0.1038 0.9742 -0.2006
vn -0.1414 0.9808 -0.1342
vn -0.5084 0.3251 -0.7974
vn -0.6041 -0.3717 -0.7049
vn -0.7049 0.0000 -0.7093
vn -0.6456 -0.3107 -0.6976
vn -0.7303 0.4002 -0.5537
vn -0.7231 0.0000 -0.6907
vn -0.4743 -0.8661 -0.1579
vn -0.1038 -0.9742 -0.2006
vn 0.0137 -0.9924 -0.1225
vn 0.0173 -0.9878 -0.1545
vn 0.0202 -0.9835 -0.1800
vn 0.3437 -0.9360 0.0766
vn 0.2281 -0.9729 -0.0368
vn 0.8403 -0.3235 0.4350
vn 0.6706 -0.4671 0.5763
vn 0.8495 0.0000 0.5275
vn 0.8673 0.0000 0.4978
vn 0.6755 0.6184 0.4015
vn 0.8032 0.4828 0.3490
vn 0.2281 0.9729 -0.0368
vn 0.2046 0.9703 0.1287
vn -0.1564 0.9765 -0.1484
vn -0.5530 0.4789 -0.6818
vn -0.6858 -0.3220 -0.6527
vn -0.1564 -0.9765 -0.1484
vn 0.1642 -0.9810 0.1033
vn 0.7829 -0.3847 0.4890
vn 0.6788 0.4713 0.5631
vn 0.1642 0.9810 0.1033
s 1
f 1/1/1 3/2/2 4/3/3
f 5/4/4 4/3/3 3/2/2
f 6/5/5 8/6/6 4/3/3
f 9/7/7 4/3/3 8/6/6
f 10/8/8 12/9/9 13/10/10
f 14/11/11 13/10/10 12/9/9
f 15/12/12 17/13/13 13/10/10
f 18/14/14 13/10/10 17/13/13
f 20/15/15 22/16/16 19/17/17
f 23/18/18 22/16/16 21/19/19
f 25/20/20 22/16/16 24/21/21
f 27/22/22 22/16/16 26/23/23
f 29/24/24 31/25/25 28/26/26
f 32/27/27 31/25/25 30/28/28
f 34/29/29 31/25/25 33/30/30
f 36/31/31 31/25/25 35/32/32
f 11/33/33 38/34/34 12/9/9
f 7/35/35 38/34/34 37/36/36
f 6/5/5 39/37/37 38/34/34
f 39/37/37 12/9/9 38/34/34
f 10/8/8 40/38/38 41/39/39
f 40/38/38 8/6/6 41/39/39
f 7/35/35 41/39/39 8/6/6
f 11/33/33 41/39/39 37/36/36
f 42/40/40 44/41/32 45/42/41
f 44/41/32 47/43/42 45/42/41
f 48/44/43 45/42/41 47/43/42
f 50/45/44 45/42/41 49/46/45
f 51/47/46 53/48/47 54/49/48
f 55/50/49 54/49/48 53/48/47
f 56/51/50 19/17/17 54/49/48
f 27/22/22 54/49/48 19/17/17
f 52/52/51 58/53/52 57/54/38
f 27/22/22 58/53/52 51/47/46
f 25/20/20 58/53/52 26/23/23
f 60/55/53 58/53/52 59/56/54
f 24/21/21 61/57/55 62/58/56
f 63/59/57 62/58/56 61/57/55
f 64/60/58 59/56/54 62/58/56
f 25/20/20 62/58/56 59/56/54
f 65/61/59 35/32/32 66/62/32
f 35/32/32 67/63/60 66/62/32
f 46/64/61 66/62/32 67/63/60
f 43/65/62 66/62/32 44/41/32
f 68/66/63 17/13/13 69/67/64
f 16/68/49 69/67/64 17/13/13
f 70/69/49 53/48/47 69/67/64
f 52/52/51 69/67/64 53/48/47
f 18/14/14 71/70/38 40/38/38
f 68/66/63 57/54/38 71/70/38
f 57/54/38 72/71/65 71/70/38
f 9/7/7 71/70/38 72/71/65
f 64/60/58 73/72/57 74/73/66
f 2/74/57 74/73/66 73/72/57
f 1/1/1 72/71/65 74/73/66
f 60/55/53 74/73/66 72/71/65
f 75/75/67 67/63/60 76/76/68
f 34/29/29 76/76/68 67/63/60
f 77/77/69 79/78/57 76/76/68
f 80/79/57 76/76/68 79/78/57
f 78/80/57 82/81/70 81/82/71
f 77/77/69 33/30/30 82/81/70
f 32/27/27 82/81/70 33/30/30
f 83/83/72 81/82/71 82/81/70
f 86/84/73 88/85/74 85/86/75
f 84/87/76 88/85/74 87/88/77
f 32/27/27 88/85/74 83/83/72
f 29/24/24 88/85/74 30/28/28
f 89/89/78 85/86/75 90/90/79
f 29/24/24 90/90/79 85/86/75
f 28/26/26 91/91/80 90/90/79
f 92/92/49 90/90/79 91/91/80
f 93/93/49 91/91/80 94/94/81
f 36/31/31 94/94/81 91/91/80
f 65/61/59 95/95/82 94/94/81
f 96/96/49 94/94/81 95/95/82
f 97/97/83 95/95/82 98/98/84
f 43/65/62 98/98/84 95/95/82
f 42/40/40 99/99/85 98/98/84
f 100/100/86 98/98/84 99/99/85
f 101/101/87 99/99/85 102/102/88
f 50/45/44 102/102/88 99/99/85
f 48/44/43 102/102/88 49/46/45
f 103/103/89 101/101/87 102/102/88
f 104/104/90 106/105/91 105/106/92
f 103/103/89 47/43/42 106/105/91
f 46/64/61 106/105/91 47/43/42
f 75/75/67 105/106/92 106/105/91
f 107/107/57 79/78/57 108/108/57
f 78/80/57 108/108/57 79/78/57
f 109/109/57 73/72/57 108/108/57
f 63/59/57 108/108/57 73/72/57
f 2/74/57 110/110/93 3/2/2
f 109/109/57 81/82/71 110/110/93
f 84/87/76 110/110/93 81/82/71
f 111/111/94 3/2/2 110/110/93
f 14/11/11 113/112/77 112/113/95
f 5/4/4 113/112/77 39/37/37
f 111/111/94 87/88/77 113/112/77
f 87/88/77 112/113/95 113/112/77
f 15/12/12 112/113/95 114/114/96
f 86/84/73 114/114/96 112/113/95
f 89/89/78 115/115/49 114/114/96
f 16/68/49 114/114/96 115/115/49
f 70/69/49 115/115/49 116/116/49
f 92/92/49 116/116/49 115/115/49
f 93/93/49 117/117/49 116/116/49
f 55/50/49 116/116/49 117/117/49
f 56/51/50 117/117/49 118/118/97
f 96/96/49 118/118/97 117/117/49
f 97/97/83 119/119/98 118/118/97
f 20/15/15 118/118/97 119/119/98
f 21/19/19 119/119/98 120/120/19
f 100/100/86 120/120/19 119/119/98
f 104/104/90 120/120/19 101/101/87
f 121/121/99 21/19/19 120/120/19
f 23/18/18 122/122/100 61/57/55
f 121/121/99 105/106/92 122/122/100
f 80/79/57 122/122/100 105/106/92
f 107/107/57 61/57/55 122/122/100
f 1/1/1 2/74/57 3/2/2
f 5/4/4 6/5/5 4/3/3
f 6/5/5 7/35/35 8/6/6
f 9/7/7 1/1/1 4/3/3
f 10/8/8 11/33/33 12/9/9
f 14/11/11 15/12/12 13/10/10
f 15/12/12 16/68/49 17/13/13
f 18/14/14 10/8/8 13/10/10
f 20/15/15 21/19/19 22/16/16
f 23/18/18 24/21/21 22/16/16
f 25/20/20 26/23/23 22/16/16
f 27/22/22 19/17/17 22/16/16
f 29/24/24 30/28/28 31/25/25
f 32/27/27 33/30/30 31/25/25
f 34/29/29 35/32/32 31/25/25
f 36/31/31 28/26/26 31/25/25
f 11/33/33 37/36/36 38/34/34
f 7/35/35 6/5/5 38/34/34
f 6/5/5 5/4/4 39/37/37
f 39/37/37 14/11/11 12/9/9
f 10/8/8 18/14/14 40/38/38
f 40/38/38 9/7/7 8/6/6
f 7/35/35 37/36/36 41/39/39
f 11/33/33 10/8/8 41/39/39
f 42/40/40 43/65/62 44/41/32
f 44/41/32 46/64/61 47/43/42
f 48/44/43 49/46/45 45/42/41
f 50/45/44 42/40/40 45/42/41
f 51/47/46 52/52/51 53/48/47
f 55/50/49 56/51/50 54/49/48
f 56/51/50 20/15/15 19/17/17
f 27/22/22 51/47/46 54/49/48
f 52/52/51 51/47/46 58/53/52
f 27/22/22 26/23/23 58/53/52
f 25/20/20 59/56/54 58/53/52
f 60/55/53 57/54/38 58/53/52
f 24/21/21 23/18/18 61/57/55
f 63/59/57 64/60/58 62/58/56
f 64/60/58 60/55/53 59/56/54
f 25/20/20 24/21/21 62/58/56
f 65/61/59 36/31/31 35/32/32
f 35/32/32 34/29/29 67/63/60
f 46/64/61 44/41/32 66/62/32
f 43/65/62 65/61/59 66/62/32
f 68/66/63 18/14/14 17/13/13
f 16/68/49 70/69/49 69/67/64
f 70/69/49 55/50/49 53/48/47
f 52/52/51 68/66/63 69/67/64
f 18/14/14 68/66/63 71/70/38
f 68/66/63 52/52/51 57/54/38
f 57/54/38 60/55/53 72/71/65
f 9/7/7 40/38/38 71/70/38
f 64/60/58 63/59/57 73/72/57
f 2/74/57 1/1/1 74/73/66
f 1/1/1 9/7/7 72/71/65
f 60/55/53 64/60/58 74/73/66
f 75/75/67 46/64/61 67/63/60
f 34/29/29 77/77/69 76/76/68
f 77/77/69 78/80/57 79/78/57
f 80/79/57 75/75/67 76/76/68
f 78/80/57 77/77/69 82/81/70
f 77/77/69 34/29/29 33/30/30
f 32/27/27 83/83/72 82/81/70
f 83/83/72 84/87/76 81/82/71
f 86/84/73 87/88/77 88/85/74
f 84/87/76 83/83/72 88/85/74
f 32/27/27 30/28/28 88/85/74
f 29/24/24 85/86/75 88/85/74
f 89/89/78 86/84/73 85/86/75
f 29/24/24 28/26/26 90/90/79
f 28/26/26 36/31/31 91/91/80
f 92/92/49 89/89/78 90/90/79
f 93/93/49 92/92/49 91/91/80
f 36/31/31 65/61/59 94/94/81
f 65/61/59 43/65/62 95/95/82
f 96/96/49 93/93/49 94/94/81
f 97/97/83 96/96/49 95/95/82
f 43/65/62 42/40/40 98/98/84
f 42/40/40 50/45/44 99/99/85
f 100/100/86 97/97/83 98/98/84
f 101/101/87 100/100/86 99/99/85
f 50/45/44 49/46/45 102/102/88
f 48/44/43 103/103/89 102/102/88
f 103/103/89 104/104/90 101/101/87
f 104/104/90 103/103/89 106/105/91
f 103/103/89 48/44/43 47/43/42
f 46/64/61 75/75/67 106/105/91
f 75/75/67 80/79/57 105/106/92
f 107/107/57 80/79/57 79/78/57
f 78/80/57 109/109/57 108/108/57
f 109/109/57 2/74/57 73/72/57
f 63/59/57 107/107/57 108/108/57
f 2/74/57 109/109/57 110/110/93
f 109/109/57 78/80/57 81/82/71
f 84/87/76 111/111/94 110/110/93
f 111/111/94 5/4/4 3/2/2
f 14/11/11 39/37/37 113/112/77
f 5/4/4 111/111/94 113/112/77
f 111/111/94 84/87/76 87/88/77
f 87/88/77 86/84/73 112/113/95
f 15/12/12 14/11/11 112/113/95
f 86/84/73 89/89/78 114/114/96
f 89/89/78 92/92/49 115/115/49
f 16/68/49 15/12/12 114/114/96
f 70/69/49 16/68/49 115/115/49
f 92/92/49 93/93/49 116/116/49
f 93/93/49 96/96/49 117/117/49
f 55/50/49 70/69/49 116/116/49
f 56/51/50 55/50/49 117/117/49
f 96/96/49 97/97/83 118/118/97
f 97/97/83 100/100/86 119/119/98
f 20/15/15 56/51/50 118/118/97
f 21/19/19 20/15/15 119/119/98
f 100/100/86 101/101/87 120/120/19
f 104/104/90 121/121/99 120/120/19
f 121/121/99 23/18/18 21/19/19
f 23/18/18 121/121/99 122/122/100
f 121/121/99 104/104/90 105/106/92
f 80/79/57 107/107/57 122/122/100
f 107/107/57 63/59/57 61/57/55
